<svg width="21" height="21" viewBox="0 0 21 21" fill="none" xmlns="http://www.w3.org/2000/svg">
<path d="M7.48694 2.566C7.92452 2.43407 8.39409 2.45599 8.81748 2.62811C9.24087 2.80023 9.59254 3.11217 9.81394 3.512L9.88794 3.661L10.5499 5.132C10.7508 5.57848 10.8161 6.07418 10.7375 6.55744C10.6589 7.04069 10.44 7.49018 10.1079 7.85L9.97494 7.982L8.93194 8.955C8.74394 9.133 8.88494 9.822 9.56494 11C10.1769 12.06 10.6749 12.555 10.9199 12.582H10.9629L11.0159 12.572L13.0659 11.945C13.3415 11.8605 13.6355 11.8572 13.9128 11.9354C14.1902 12.0136 14.4392 12.17 14.6299 12.386L14.7209 12.501L16.0779 14.381C16.3439 14.7495 16.4764 15.1976 16.4537 15.6514C16.431 16.1053 16.2544 16.5379 15.9529 16.878L15.8309 17.004L15.2889 17.518C14.8022 17.9789 14.1934 18.2904 13.5348 18.4154C12.8763 18.5403 12.1957 18.4736 11.5739 18.223C9.63894 17.443 7.88094 15.661 6.28394 12.895C4.68394 10.122 4.01894 7.705 4.31594 5.635C4.40581 5.00927 4.66348 4.41956 5.06157 3.9285C5.45967 3.43744 5.98333 3.06336 6.57694 2.846L6.76994 2.782L7.48694 2.566Z" fill="#A5A5A5"/>
</svg>
