<svg width="21" height="21" viewBox="0 0 21 21" fill="none" xmlns="http://www.w3.org/2000/svg">
<path d="M17.9999 3H2.99992C2.07492 3 1.33325 3.74167 1.33325 4.66667V14.6667C1.33325 15.1087 1.50885 15.5326 1.82141 15.8452C2.13397 16.1577 2.55789 16.3333 2.99992 16.3333H7.16658V18H13.8333V16.3333H17.9999C18.4419 16.3333 18.8659 16.1577 19.1784 15.8452C19.491 15.5326 19.6666 15.1087 19.6666 14.6667V4.66667C19.6666 4.22464 19.491 3.80072 19.1784 3.48816C18.8659 3.17559 18.4419 3 17.9999 3ZM17.9999 14.6667H2.99992V4.66667H17.9999M13.8333 9.66667L7.99992 13V6.33333" fill="#A5A5A5"/>
</svg>
