<svg width="21" height="21" viewBox="0 0 21 21" fill="none" xmlns="http://www.w3.org/2000/svg">
<path d="M4.875 3C4.37772 3 3.90081 3.19754 3.54917 3.54917C3.19754 3.90081 3 4.37772 3 4.875V16.125C3 16.6223 3.19754 17.0992 3.54917 17.4508C3.90081 17.8025 4.37772 18 4.875 18C5.37228 18 5.84919 17.8025 6.20083 17.4508C6.55246 17.0992 6.75 16.6223 6.75 16.125V4.875C6.75 4.37772 6.55246 3.90081 6.20083 3.54917C5.84919 3.19754 5.37228 3 4.875 3ZM9.875 6.75C9.37772 6.75 8.90081 6.94754 8.54917 7.29917C8.19754 7.65081 8 8.12772 8 8.625V16.125C8 16.6223 8.19754 17.0992 8.54917 17.4508C8.90081 17.8025 9.37772 18 9.875 18C10.3723 18 10.8492 17.8025 11.2008 17.4508C11.5525 17.0992 11.75 16.6223 11.75 16.125V8.625C11.75 8.12772 11.5525 7.65081 11.2008 7.29917C10.8492 6.94754 10.3723 6.75 9.875 6.75ZM14.875 10.5C14.3777 10.5 13.9008 10.6975 13.5492 11.0492C13.1975 11.4008 13 11.8777 13 12.375V16.125C13 16.6223 13.1975 17.0992 13.5492 17.4508C13.9008 17.8025 14.3777 18 14.875 18C15.3723 18 15.8492 17.8025 16.2008 17.4508C16.5525 17.0992 16.75 16.6223 16.75 16.125V12.375C16.75 11.8777 16.5525 11.4008 16.2008 11.0492C15.8492 10.6975 15.3723 10.5 14.875 10.5Z" fill="#A5A5A5"/>
</svg>
