<svg width="21" height="21" viewBox="0 0 21 21" fill="none" xmlns="http://www.w3.org/2000/svg">
<path d="M4.66667 18C4.20833 18 3.81583 17.8367 3.48917 17.51C3.1625 17.1833 2.99945 16.7911 3 16.3333V4.66667C3 4.20833 3.16333 3.81583 3.49 3.48917C3.81667 3.1625 4.20889 2.99945 4.66667 3H9.66667V18H4.66667ZM11.3333 18V10.5H18V16.3333C18 16.7917 17.8367 17.1842 17.51 17.5108C17.1833 17.8375 16.7911 18.0006 16.3333 18H11.3333ZM11.3333 8.83334V3H16.3333C16.7917 3 17.1842 3.16333 17.5108 3.49C17.8375 3.81667 18.0006 4.20889 18 4.66667V8.83334H11.3333Z" fill="#A5A5A5"/>
</svg>
