<svg width="20" height="20" viewBox="0 0 20 20" fill="none" xmlns="http://www.w3.org/2000/svg">
<path d="M16.6668 9.99999C16.6668 9.08082 15.9193 8.33332 15.0002 8.33332H14.1668V5.83332C14.1668 3.53582 12.2977 1.66666 10.0002 1.66666C7.70266 1.66666 5.8335 3.53582 5.8335 5.83332V8.33332H5.00016C4.081 8.33332 3.3335 9.08082 3.3335 9.99999V16.6667C3.3335 17.5858 4.081 18.3333 5.00016 18.3333H15.0002C15.9193 18.3333 16.6668 17.5858 16.6668 16.6667V9.99999ZM7.50016 5.83332C7.50016 4.45499 8.62183 3.33332 10.0002 3.33332C11.3785 3.33332 12.5002 4.45499 12.5002 5.83332V8.33332H7.50016V5.83332Z" fill="white"/>
</svg>
