<svg width="21" height="21" viewBox="0 0 21 21" fill="none" xmlns="http://www.w3.org/2000/svg">
<path fill-rule="evenodd" clip-rule="evenodd" d="M9.49667 2.37C11.0442 2.02167 12.1667 3.35167 12.1667 4.66667V16.3333C12.1667 17.6483 11.0442 18.9783 9.49667 18.63C5.77833 17.7933 3 14.4717 3 10.5C3 6.52834 5.77833 3.20667 9.49667 2.37ZM14.0775 7.41083C14.2338 7.25461 14.4457 7.16685 14.6667 7.16685C14.8876 7.16685 15.0996 7.25461 15.2558 7.41083L17.7558 9.91084C17.9121 10.0671 17.9998 10.279 17.9998 10.5C17.9998 10.721 17.9121 10.9329 17.7558 11.0892L15.2558 13.5892C15.0987 13.741 14.8882 13.825 14.6697 13.8231C14.4512 13.8212 14.2422 13.7335 14.0877 13.579C13.9331 13.4245 13.8455 13.2155 13.8436 12.997C13.8417 12.7785 13.9257 12.568 14.0775 12.4108L15.155 11.3333H8C7.77899 11.3333 7.56703 11.2455 7.41074 11.0893C7.25446 10.933 7.16667 10.721 7.16667 10.5C7.16667 10.279 7.25446 10.067 7.41074 9.91075C7.56703 9.75447 7.77899 9.66667 8 9.66667H15.155L14.0775 8.58917C13.9213 8.43289 13.8335 8.22097 13.8335 8C13.8335 7.77903 13.9213 7.56711 14.0775 7.41083Z" fill="#A5A5A5"/>
</svg>
