<svg width="21" height="21" viewBox="0 0 21 21" fill="none" xmlns="http://www.w3.org/2000/svg">
<path d="M19.9445 10.9833C19.5302 10.8283 19.1521 10.5901 18.8334 10.2833C18.1051 9.47398 17.4903 8.5694 17.0056 7.59444L18.889 4.65556C18.9343 4.58844 18.9627 4.51132 18.9716 4.43083C18.9805 4.35033 18.9698 4.26887 18.9403 4.19345C18.9108 4.11802 18.8634 4.0509 18.8022 3.99785C18.741 3.9448 18.6678 3.9074 18.589 3.88889C17.6203 3.76054 16.6349 3.89884 15.739 4.28889C15.1052 4.56676 14.5185 4.94162 14.0001 5.4C13.0056 4.91122 11.9344 4.59738 10.8334 4.47222C7.05562 4.12222 3.42784 6.55556 3.02229 9.94444L2.94451 9.90556C2.75004 9.81974 2.57554 9.69444 2.43208 9.53759C2.28862 9.38074 2.17934 9.19578 2.11118 8.99444C2.06678 8.85263 2.05128 8.70335 2.06559 8.55545C2.07991 8.40754 2.12374 8.264 2.19451 8.13333C2.25709 8.02341 2.34704 7.93155 2.45562 7.86667C2.52311 7.82581 2.58188 7.77206 2.6286 7.70849C2.67531 7.64492 2.70904 7.57277 2.72787 7.49616C2.7467 7.41955 2.75026 7.33999 2.73834 7.26201C2.72642 7.18402 2.69925 7.10915 2.6584 7.04167C2.61754 6.97418 2.5638 6.9154 2.50022 6.86869C2.43665 6.82198 2.3645 6.78824 2.2879 6.76941C2.21129 6.75058 2.13172 6.74703 2.05374 6.75895C1.97576 6.77087 1.90088 6.79803 1.8334 6.83889C1.54961 7.00765 1.31423 7.24686 1.15007 7.53333C1.00001 7.80561 0.906434 8.10536 0.874932 8.41465C0.843431 8.72393 0.874654 9.0364 0.966733 9.33333C1.07905 9.69355 1.26357 10.0271 1.50905 10.3136C1.75452 10.6002 2.0558 10.8337 2.39451 11L2.95007 11.3C3.03887 12.7137 3.41705 14.094 4.06118 15.3556C4.50522 16.3077 5.065 17.2015 5.72784 18.0167C5.78074 18.0836 5.84834 18.1375 5.92542 18.1741C6.0025 18.2107 6.08697 18.2291 6.17229 18.2278H8.17784C8.22377 18.222 8.26765 18.2054 8.30579 18.1791C8.34393 18.1529 8.3752 18.1179 8.39698 18.0771C8.41876 18.0362 8.43041 17.9907 8.43095 17.9445C8.43149 17.8982 8.4209 17.8524 8.40007 17.8111L8.27784 17.3778C8.2046 17.1628 8.14339 16.944 8.09451 16.7222C8.60007 16.8111 9.25007 16.8944 9.68896 16.9333C10.2659 16.9783 10.8454 16.9783 11.4223 16.9333C11.639 17.3222 11.8612 17.6722 12.0612 17.9611C12.1084 18.0312 12.1721 18.0886 12.2467 18.1283C12.3213 18.168 12.4045 18.1888 12.489 18.1889H14.2167C14.2733 18.1882 14.3289 18.1741 14.379 18.148C14.4291 18.1219 14.4724 18.0843 14.5054 18.0384C14.5384 17.9924 14.5601 17.9394 14.5688 17.8835C14.5776 17.8276 14.573 17.7705 14.5556 17.7167C14.4278 17.3056 14.2612 16.7444 14.1612 16.4C14.8953 16.1663 15.5957 15.8376 16.2445 15.4222C16.3334 15.3611 16.4223 15.2778 16.5112 15.2056C16.0464 15.0635 15.5962 14.8775 15.1667 14.65C15.0621 14.5955 14.9834 14.5016 14.948 14.3891C14.9126 14.2766 14.9233 14.1546 14.9778 14.05C15.0324 13.9454 15.1262 13.8667 15.2387 13.8313C15.3512 13.7959 15.4732 13.8066 15.5778 13.8611C16.134 14.1493 16.7291 14.3552 17.3445 14.4722C17.8373 14.5445 18.3361 14.5669 18.8334 14.5389C18.9437 14.5344 19.0503 14.4971 19.1393 14.4318C19.2284 14.3665 19.2959 14.2761 19.3334 14.1722L20.2945 11.7056C20.3206 11.6353 20.3323 11.5604 20.3287 11.4855C20.3251 11.4106 20.3064 11.3372 20.2737 11.2697C20.241 11.2022 20.195 11.1421 20.1384 11.0929C20.0818 11.0436 20.0159 11.0064 19.9445 10.9833ZM8.16118 6.93889C8.10771 6.95798 8.05128 6.96738 7.99451 6.96667C7.8853 6.96494 7.78007 6.92541 7.69673 6.85482C7.61339 6.78422 7.55711 6.68691 7.53745 6.57948C7.5178 6.47204 7.536 6.36111 7.58894 6.26558C7.64189 6.17005 7.72632 6.09583 7.82784 6.05556C9.01514 5.61422 10.3011 5.5085 11.5445 5.75C11.6086 5.75745 11.6704 5.77793 11.7262 5.81019C11.7821 5.84244 11.8307 5.88579 11.8691 5.93756C11.9076 5.98933 11.935 6.04842 11.9497 6.1112C11.9644 6.17397 11.9662 6.23909 11.9548 6.30256C11.9434 6.36602 11.9191 6.42647 11.8834 6.4802C11.8478 6.53392 11.8015 6.57977 11.7474 6.61492C11.6934 6.65008 11.6327 6.67379 11.5691 6.6846C11.5056 6.69541 11.4405 6.69309 11.3778 6.67778C10.302 6.46797 9.18912 6.55831 8.16118 6.93889ZM15.1167 10.3389C14.9585 10.3389 14.8038 10.292 14.6723 10.2041C14.5407 10.1162 14.4382 9.99122 14.3776 9.84504C14.3171 9.69885 14.3012 9.538 14.3321 9.38282C14.363 9.22763 14.4392 9.08509 14.551 8.9732C14.6629 8.86132 14.8055 8.78513 14.9607 8.75426C15.1158 8.72339 15.2767 8.73923 15.4229 8.79979C15.5691 8.86034 15.694 8.96287 15.7819 9.09443C15.8698 9.22599 15.9167 9.38066 15.9167 9.53889C15.9175 9.64395 15.8975 9.74812 15.858 9.84546C15.8184 9.9428 15.7601 10.0314 15.6864 10.1062C15.6126 10.181 15.5248 10.2406 15.428 10.2814C15.3312 10.3223 15.2273 10.3437 15.1223 10.3444L15.1167 10.3389Z" fill="#A5A5A5"/>
</svg>
