<svg width="21" height="21" viewBox="0 0 21 21" fill="none" xmlns="http://www.w3.org/2000/svg">
<path fill-rule="evenodd" clip-rule="evenodd" d="M10.5001 2.16667C15.1026 2.16667 18.8334 5.89751 18.8334 10.5C18.8334 15.1025 15.1026 18.8333 10.5001 18.8333C5.89758 18.8333 2.16675 15.1025 2.16675 10.5C2.16675 5.89751 5.89758 2.16667 10.5001 2.16667ZM12.7917 14.6667V8.00001L14.1959 9.60834C14.3059 9.72942 14.459 9.80255 14.6223 9.81202C14.7856 9.82149 14.9462 9.76655 15.0694 9.65899C15.1927 9.55144 15.2689 9.39984 15.2816 9.23675C15.2944 9.07365 15.2426 8.91207 15.1376 8.78667L12.6376 5.92251C12.5539 5.82668 12.443 5.75866 12.3197 5.72753C12.1964 5.6964 12.0665 5.70365 11.9473 5.74831C11.8282 5.79296 11.7256 5.87289 11.6531 5.97743C11.5806 6.08197 11.5418 6.20613 11.5417 6.33334V14.6667C11.5417 14.8324 11.6076 14.9914 11.7248 15.1086C11.842 15.2258 12.001 15.2917 12.1667 15.2917C12.3325 15.2917 12.4915 15.2258 12.6087 15.1086C12.7259 14.9914 12.7917 14.8324 12.7917 14.6667ZM5.92258 11.3308C6.04747 11.2219 6.2105 11.167 6.37584 11.1783C6.54117 11.1895 6.69527 11.266 6.80425 11.3908L8.20842 13V6.33334C8.20842 6.16758 8.27426 6.00861 8.39147 5.8914C8.50868 5.77419 8.66765 5.70834 8.83342 5.70834C8.99918 5.70834 9.15815 5.77419 9.27536 5.8914C9.39257 6.00861 9.45842 6.16758 9.45842 6.33334V14.6667C9.45838 14.7939 9.41952 14.918 9.34705 15.0226C9.27457 15.1271 9.17193 15.2071 9.05282 15.2517C8.93371 15.2964 8.80381 15.3036 8.68048 15.2725C8.55714 15.2414 8.44624 15.1733 8.36258 15.0775L5.86258 12.2133C5.80852 12.1515 5.76718 12.0796 5.74093 12.0017C5.71469 11.9239 5.70405 11.8416 5.70962 11.7596C5.71519 11.6777 5.73687 11.5976 5.77341 11.524C5.80995 11.4505 5.86064 11.3848 5.92258 11.3308Z" fill="#A5A5A5"/>
</svg>
