<svg width="21" height="21" viewBox="0 0 21 21" fill="none" xmlns="http://www.w3.org/2000/svg">
<path d="M4.23047 4.56249H16.7305C16.8765 4.56242 17.0224 4.57168 17.1672 4.59022C17.1181 4.2456 16.9997 3.91449 16.8192 3.61686C16.6387 3.31922 16.3998 3.06123 16.1168 2.85843C15.8339 2.65562 15.5129 2.51222 15.173 2.43685C14.8332 2.36149 14.4816 2.35572 14.1395 2.41991L3.85938 4.17499H3.84766C3.20237 4.29838 2.62854 4.66347 2.24336 5.19569C2.82367 4.78293 3.51834 4.56157 4.23047 4.56249ZM16.7305 5.49999H4.23047C3.56765 5.50071 2.93219 5.76433 2.4635 6.23302C1.99482 6.7017 1.73119 7.33717 1.73047 7.99999V15.5C1.73119 16.1628 1.99482 16.7983 2.4635 17.267C2.93219 17.7356 3.56765 17.9993 4.23047 18H16.7305C17.3933 17.9993 18.0288 17.7356 18.4974 17.267C18.9661 16.7983 19.2297 16.1628 19.2305 15.5V7.99999C19.2297 7.33717 18.9661 6.7017 18.4974 6.23302C18.0288 5.76433 17.3933 5.50071 16.7305 5.49999ZM14.875 13C14.6278 13 14.3861 12.9267 14.1805 12.7893C13.975 12.652 13.8148 12.4567 13.7202 12.2283C13.6255 11.9999 13.6008 11.7486 13.649 11.5061C13.6972 11.2636 13.8163 11.0409 13.9911 10.8661C14.1659 10.6913 14.3887 10.5722 14.6311 10.524C14.8736 10.4758 15.1249 10.5005 15.3534 10.5951C15.5818 10.6897 15.777 10.85 15.9143 11.0555C16.0517 11.2611 16.125 11.5028 16.125 11.75C16.125 12.0815 15.9933 12.3994 15.7589 12.6339C15.5245 12.8683 15.2065 13 14.875 13Z" fill="#A5A5A5"/>
<path d="M1.75 10.6367V6.75C1.75 5.90352 2.21875 4.48437 3.8457 4.17695C5.22656 3.91797 6.59375 3.91797 6.59375 3.91797C6.59375 3.91797 7.49219 4.54297 6.75 4.54297C6.00781 4.54297 6.02734 5.5 6.75 5.5C7.47266 5.5 6.75 6.41797 6.75 6.41797L3.83984 9.71875L1.75 10.6367Z" fill="#A5A5A5"/>
</svg>
