<svg xmlns:mydata="http://www.w3.org/2000/svg" mydata:contrastcolor="ffffff" mydata:template="Contrast" mydata:presentation="2.5" mydata:layouttype="undefined" mydata:specialfontid="undefined" mydata:id1="409" mydata:id2="192" mydata:companyname="Bitstock" mydata:companytagline="" version="1.1" xmlns="http://www.w3.org/2000/svg" xmlns:xlink="http://www.w3.org/1999/xlink" viewBox="64.99999999999999 199.4873591267191 420 71.02528174656177" class="watermark-logo"><g fill="#24d1ae" fill-rule="nonzero" stroke="none" stroke-width="1" stroke-linecap="butt" stroke-linejoin="miter" stroke-miterlimit="10" stroke-dasharray="" stroke-dashoffset="0" font-family="none" font-weight="none" font-size="none" text-anchor="none" style="mix-blend-mode: normal"><g data-paper-data="{&quot;isGlobalGroup&quot;:true,&quot;bounds&quot;:{&quot;x&quot;:64.99999999999999,&quot;y&quot;:199.4873591267191,&quot;width&quot;:420,&quot;height&quot;:71.02528174656177}}"><g data-paper-data="{&quot;isPrimaryText&quot;:true}"><path d="M170.89498,210.7673h21.19257c9.2052,-0.034 15.28441,5.4613 15.31876,13.70476c0,5.08313 -2.40434,8.82772 -6.25095,9.92651c4.43052,1.13348 7.31608,5.3926 7.31608,11.19737c0,8.20912 -6.07956,13.70442 -15.25041,13.70442h-22.32571c-0.54956,0 -0.96174,-0.48053 -0.96174,-0.99609v-46.47253c0,-0.54956 0.41217,-1.09913 0.96174,-1.06512zM184.428,223.3379v6.49173h4.43086c2.16391,0 3.53782,-1.3059 3.50382,-3.22903c0,-1.92313 -1.40826,-3.26338 -3.50347,-3.26338h-4.43086zM184.42835,239.96154v6.73285h5.70242c2.02652,-0.03435 3.43478,-1.30522 3.43478,-3.36608c0,-2.06052 -1.40826,-3.40077 -3.43478,-3.36643h-5.70242z" data-paper-data="{&quot;glyphName&quot;:&quot;B&quot;,&quot;glyphIndex&quot;:0,&quot;firstGlyphOfWord&quot;:true,&quot;word&quot;:1}" fill="#24d1ae" style="fill: rgb(255, 255, 255);"></path><path d="M213.45187,210.7673h12.46824c0.7213,0 1.06444,0.34416 1.06444,1.06512v46.47253c0,0.65261 -0.34313,0.99574 -1.06444,0.99574h-12.46824c-0.44652,0 -0.96174,-0.48053 -0.96174,-0.99609v-46.47253c0,-0.54956 0.51522,-1.06512 0.96174,-1.06512z" data-paper-data="{&quot;glyphName&quot;:&quot;I&quot;,&quot;glyphIndex&quot;:1,&quot;word&quot;:1}" fill="#24d1ae" style="fill: rgb(255, 255, 255);"></path><path d="M230.48871,210.7673h37.81655c0.65261,0 1.09913,0.48121 0.99609,0.99609l-1.06444,10.6825c-0.10304,0.65261 -0.44652,0.99609 -1.09913,0.99609h-10.47573v34.86264c0,0.44652 -0.44652,0.99574 -0.99609,0.99574h-12.46824c-0.54956,0 -1.03078,-0.48053 -1.03078,-0.99609v-34.86264h-11.6779c-0.44652,0 -0.99574,-0.44652 -0.99574,-0.99609v-10.61346c0,-0.54956 0.54922,-1.06512 0.99574,-1.06512z" data-paper-data="{&quot;glyphName&quot;:&quot;T&quot;,&quot;glyphIndex&quot;:2,&quot;word&quot;:1}" fill="#24d1ae" style="fill: rgb(255, 255, 255);"></path><path d="M270.70926,225.3998c0,-9.37694 7.07564,-15.69659 17.79214,-15.69659c4.98111,0 11.3698,2.06052 15.76631,5.08313c0.65226,0.41217 0.85835,0.82435 0.54956,1.23652l-4.43086,9.92651c-0.24043,0.75634 -0.65261,0.96242 -1.27087,0.58391c-3.84661,-2.19826 -7.14434,-3.43443 -9.89216,-3.67487c-2.16391,0.03435 -3.60652,1.06478 -3.60652,2.43869c0,1.20217 1.71705,2.40434 5.15182,3.53782c3.43478,1.13313 6.62912,2.78183 9.58303,4.94574c2.98826,2.16391 5.18651,6.11459 5.18651,10.95728c0.03435,9.37694 -7.28138,15.62824 -18.10093,15.62824c-5.90782,0 -12.15877,-1.85478 -15.59354,-4.63695c-0.61826,-0.48053 -0.82435,-0.8927 -0.58391,-1.27052l4.43086,-9.92719c0.24009,-0.75565 0.65226,-0.92739 1.27052,-0.54956c3.57217,2.02652 6.83555,3.12633 9.78946,3.36608c2.23261,0 3.70956,-1.16782 3.70956,-2.54173c-0.03435,-1.20217 -1.75174,-2.40434 -5.18617,-3.60652c-3.43478,-1.16782 -6.59477,-2.81652 -9.44564,-4.91139c-2.88556,-2.1646 -5.11816,-6.11459 -5.11816,-10.88893z" data-paper-data="{&quot;glyphName&quot;:&quot;S&quot;,&quot;glyphIndex&quot;:3,&quot;word&quot;:1}" fill="#24d1ae" style="fill: rgb(255, 255, 255);"></path><path d="M307.90858,210.7673h37.81655c0.65261,0 1.09913,0.48121 0.99609,0.99609l-1.06444,10.6825c-0.10304,0.65261 -0.44652,0.99609 -1.09913,0.99609h-10.47573v34.86264c0,0.44652 -0.44652,0.99574 -0.99609,0.99574h-12.46824c-0.54956,0 -1.03078,-0.48053 -1.03078,-0.99609v-34.86264h-11.6779c-0.44652,0 -0.99574,-0.44652 -0.99574,-0.99609v-10.61346c0,-0.54956 0.54922,-1.06512 0.99574,-1.06512z" data-paper-data="{&quot;glyphName&quot;:&quot;T&quot;,&quot;glyphIndex&quot;:4,&quot;word&quot;:1}" fill="#24d1ae" style="fill: rgb(255, 255, 255);"></path><path d="M396.45679,234.98283c0,15.25041 -9.89181,25.24492 -24.93614,25.31362c-15.11302,0.0687 -25.00552,-10.13259 -25.00552,-25.34865c0,-15.21606 9.85815,-25.31396 25.00552,-25.31396c15.04432,0 24.93614,10.13259 24.93614,25.34865zM381.13768,235.01683c0,-6.38869 -3.67521,-11.16303 -9.65172,-11.16303c-5.73608,0 -9.61738,4.49921 -9.61738,11.16268c0,6.66347 3.8813,11.19737 9.61738,11.19737c5.73608,0 9.65207,-4.53391 9.65207,-11.19737z" data-paper-data="{&quot;glyphName&quot;:&quot;O&quot;,&quot;glyphIndex&quot;:5,&quot;word&quot;:1}" fill="#24d1ae" style="fill: rgb(255, 255, 255);"></path><path d="M423.93466,260.36548c-14.52911,0 -24.18083,-10.16694 -24.18083,-25.34865c0,-15.18171 9.65172,-25.31431 24.18083,-25.31431c5.49564,0 10.44172,1.37391 14.80389,4.08738c0.65261,0.30947 0.85869,0.75565 0.61826,1.27121l-4.63695,9.75477c-0.27444,0.65261 -0.72096,0.85869 -1.33922,0.58357c-2.30096,-1.30487 -5.01512,-1.95748 -8.17511,-1.95748c-6.35434,0 -10.54477,4.63695 -10.54477,11.57486c0,6.93825 4.19043,11.60955 10.51007,11.60955c3.15999,0 5.9085,-0.65261 8.20946,-1.95748c0.61826,-0.30982 1.06478,-0.10373 1.33922,0.54888l4.63695,9.78911c0.24043,0.51487 0.03435,0.96139 -0.61826,1.27087c-4.36217,2.71313 -9.2739,4.08704 -14.80389,4.08704z" data-paper-data="{&quot;glyphName&quot;:&quot;C&quot;,&quot;glyphIndex&quot;:6,&quot;word&quot;:1}" fill="#24d1ae" style="fill: rgb(255, 255, 255);"></path><path d="M484.35308,259.3007h-16.31553c-0.65261,0 -1.16782,-0.27444 -1.47661,-0.85835l-8.72502,-17.58606v17.44832c0,0.65261 -0.34313,0.99574 -1.06444,0.99574h-12.46824c-0.44652,0 -0.96174,-0.48053 -0.96174,-0.99609v-46.47253c0,-0.54956 0.51522,-1.09913 0.96174,-1.06512h12.46824c0.7213,0 1.06444,0.34416 1.06444,1.06512v15.73128l8.4152,-15.97171c0.30947,-0.58391 0.85904,-0.85835 1.61469,-0.82435h15.42215c0.65261,0 0.82435,0.27513 0.48018,0.82469l-13.9105,22.32674l14.97563,24.52396c0.37783,0.41217 0.06904,0.85801 -0.48053,0.85801z" data-paper-data="{&quot;glyphName&quot;:&quot;K&quot;,&quot;glyphIndex&quot;:7,&quot;lastGlyphOfWord&quot;:true,&quot;word&quot;:1}" fill="#24d1ae" style="fill: rgb(255, 255, 255);"></path></g><g data-paper-data="{&quot;fillRule&quot;:&quot;nonzero&quot;,&quot;fillRuleOriginal&quot;:&quot;nonzero&quot;,&quot;isIcon&quot;:true,&quot;iconStyle&quot;:&quot;standalone&quot;,&quot;selectedEffects&quot;:{&quot;container&quot;:&quot;enclosed_circle_outline2&quot;,&quot;transformation&quot;:&quot;&quot;,&quot;pattern&quot;:&quot;&quot;},&quot;bounds&quot;:{&quot;x&quot;:64.99999999999999,&quot;y&quot;:199.4873591267191,&quot;width&quot;:74.02642321544302,&quot;height&quot;:71.02528174656177},&quot;widthRatioIconToContainer&quot;:0.9798464569399068,&quot;heightRatioIconToContainer&quot;:0.9376596016343207,&quot;relativeBoundsIconToContainer&quot;:{&quot;top&quot;:-0.031170199182839625,&quot;left&quot;:-0.010076771530046597},&quot;iconType&quot;:&quot;initial&quot;,&quot;initialText&quot;:&quot;B&quot;,&quot;rawInitialId&quot;:800,&quot;blockLetter&quot;:&quot;O&quot;,&quot;suitableAsStandaloneIcon&quot;:true}"><path d="M90.94207,199.48737h21.42479c14.32621,0 19.61788,8.51829 19.61788,17.03658c0,9.55081 -5.29166,13.55182 -5.29166,13.55182c6.45325,2.45224 10.84146,8.26016 10.84146,17.29471c0,11.74491 -8.00203,18.71442 -23.48982,18.71442h-23.10263c-3.61382,0 -6.71138,-2.96849 -6.71138,-6.71138v-12.64837c3.61382,-0.12906 7.3567,-0.64533 11.22865,-1.54878v10.84146h17.94003c8.38923,0 12.9065,-3.09756 12.9065,-9.938c0,-2.71037 -0.64533,-4.7754 -1.93598,-6.32418c-0.64533,-0.77439 -1.54878,-1.54878 -2.5813,-2.19411c-0.64533,-0.25813 -1.16159,-0.51626 -1.80691,-0.77439c-5.5498,-2.32317 -16.64939,-5.42073 -16.64939,-5.42073c-8.1311,-2.19411 -16.13312,-3.87195 -21.68292,-3.87195c-2.83943,0 -5.03353,0.38719 -6.32418,1.29065c-0.51626,0.38719 -0.90346,0.77439 -0.90346,2.06504c0,2.06504 0.64533,3.09756 2.5813,3.87195c4.90447,2.19411 14.71341,0.51626 23.74795,-2.45224c4.38821,0.90346 10.06707,2.83943 14.19715,4.25914c-9.42175,4.64634 -21.94105,8.51829 -32.00811,8.51829c-3.61382,0 -6.84045,-0.51626 -9.55081,-1.54878c-5.42073,-2.32317 -8.38923,-6.71138 -8.38923,-12.64837c0,-4.25914 1.67784,-7.61483 5.03353,-9.80894c3.48475,-2.32317 8.51829,-2.96849 14.19715,-2.71037v-12.13211c0,-3.74288 3.09756,-6.71138 6.71138,-6.71138zM95.45934,219.75057c7.09857,1.41971 14.19715,3.48475 20.00507,5.5498c4.38821,-1.67784 6.19512,-4.13008 6.19512,-7.09857c0,-5.29166 -2.83943,-8.64735 -10.45426,-8.64735h-15.74593zM78.23294,209.71907c1.20801,-1.20801 2.48191,-2.31574 3.82171,-3.32321v1.86666c-0.96391,0.77603 -1.89059,1.60877 -2.78004,2.49822c-1.84566,1.84567 -3.44714,3.85165 -4.80444,6.01793l-1.64166,0.55488l-0.08646,0.02828l-0.41527,0.14562c1.59014,-2.84494 3.55886,-5.44106 5.90616,-7.78838zM136.22763,221.03855c1.86587,4.41148 2.7988,9.03214 2.7988,13.86198c0,1.7332 -0.12014,3.43948 -0.36042,5.11883l-0.13778,-0.44001l-0.02692,-0.0802l-0.24372,-0.68326l-0.03117,-0.0819l-0.27093,-0.67278l-0.03542,-0.08304l-0.2987,-0.66116l-0.04024,-0.0836l-0.09282,-0.18411c0.04336,-0.71138 0.06505,-1.42764 0.06505,-2.14879c0,-4.63065 -0.89411,-9.06002 -2.68232,-13.28811c-0.28033,-0.66275 -0.57939,-1.3132 -0.89718,-1.95135l0.0266,-0.20975l0.00765,-0.06932l0.0683,-0.72212l0.00538,-0.06708l0.04591,-0.72387l0.00312,-0.06487l0.02409,-0.72492l0.00113,-0.05231l0.00115,-0.12248c0.77407,1.3229 1.46423,2.70097 2.07045,4.1342zM103.4146,270.51264c-4.33267,0 -8.49696,-0.75071 -12.49287,-2.25212l0.02034,0.00028h5.16268c2.37815,0.51918 4.81476,0.77876 7.30984,0.77876c2.49498,0 4.93152,-0.25959 7.30963,-0.77876h3.33605l0.75723,-0.00567l0.75808,-0.01672l0.433,-0.01615c-4.02685,1.52693 -8.22484,2.29039 -12.59399,2.29039zM78.23294,260.08205c-3.28565,-3.28567 -5.82953,-7.05877 -7.63165,-11.31931c-0.74654,-1.76501 -1.34373,-3.56351 -1.79159,-5.3955l0.57158,0.4106l0.08975,0.06121l0.60935,0.39335l0.08825,0.05413l0.49228,0.28554c0.3616,1.22153 0.79398,2.42713 1.29715,3.61679c1.72747,4.08408 4.16632,7.70132 7.31655,10.85171c0.9981,0.99804 2.04308,1.92468 3.13494,2.77993l0.07733,0.27648l0.07683,0.22615l0.27056,0.67249l0.10027,0.21481l0.34211,0.63934l0.12175,0.20064l0.39935,0.5845c-1.9887,-1.31408 -3.84363,-2.8317 -5.5648,-4.55286z" data-paper-data="{&quot;isPathIcon&quot;:true}" fill="#24d1ae" style="fill: rgb(255, 255, 255);"></path></g><path d="M151.38929,270.51264v-71.02528h2.86424v71.02528z" data-paper-data="{&quot;isShapeTextSeparator&quot;:true}" fill="#24d1ae" style="fill: rgb(255, 255, 255);"></path></g></g><g class="watermark-group" style="opacity:0.040000010281801224"><path class="watermark-path" d="M129.52,370.3a11.88,11.88,0,0,1,2.58,5.58,12,12,0,0,1,.11,3,11.81,11.81,0,0,1-.64,2.93,12.34,12.34,0,0,1-1.41,2.72,11.65,11.65,0,0,1-2.13,2.32,12,12,0,0,1-2.64,1.69,13,13,0,0,1-2.91.9,12.47,12.47,0,0,1-3,.12,12.17,12.17,0,0,1-2.93-.64,11.8,11.8,0,0,1-2.72-1.38,12.19,12.19,0,0,1-4-4.79,11.85,11.85,0,0,1-.89-2.92,12.14,12.14,0,0,1-.13-3,11.54,11.54,0,0,1,.64-2.92,11.67,11.67,0,0,1,3.5-5,11.44,11.44,0,0,1,2.67-1.69,11.64,11.64,0,0,1,2.92-.91,10.71,10.71,0,0,1,3-.12,11.68,11.68,0,0,1,5.66,2,11.7,11.7,0,0,1,2.34,2.12m-1.4,8.76a13,13,0,0,1-1.22,2.32,9.68,9.68,0,0,1-1.81,2,7.44,7.44,0,0,1-2.38,1.37,6.17,6.17,0,0,1-5.11-.46,8.73,8.73,0,0,1-3.85-4.58,6.69,6.69,0,0,1-.34-2.66,6.09,6.09,0,0,1,.77-2.47,7.15,7.15,0,0,1,1.75-2.11,9.58,9.58,0,0,1,1.09-.81,8.23,8.23,0,0,1,1.12-.63,8.14,8.14,0,0,1,1.19-.46,12.71,12.71,0,0,1,1.32-.37l2,2.38a12.83,12.83,0,0,0-1.56.17,7.86,7.86,0,0,0-1.23.32,4.5,4.5,0,0,0-1,.49,6.41,6.41,0,0,0-.93.67,4.49,4.49,0,0,0-1.15,1.39,3.87,3.87,0,0,0-.45,1.58,4.12,4.12,0,0,0,.26,1.63,6.11,6.11,0,0,0,2.36,2.82,4.43,4.43,0,0,0,1.57.53,3.91,3.91,0,0,0,1.62-.17,4.71,4.71,0,0,0,1.57-.89,10.5,10.5,0,0,0,.83-.79,5.71,5.71,0,0,0,.65-.93,10.13,10.13,0,0,0,.54-1.14,12.24,12.24,0,0,0,.44-1.49l2,2.33m-14.46,4.55a8.86,8.86,0,0,0,2.78,2.22,9,9,0,0,0,3.29.94,9.15,9.15,0,0,0,3.39-.37,8.68,8.68,0,0,0,3.11-1.69,8.8,8.8,0,0,0,2.22-2.78,9.15,9.15,0,0,0,1-3.29,8.95,8.95,0,0,0-4.83-8.76,9,9,0,0,0-6.73-.57,9,9,0,0,0-5.33,4.47,8.94,8.94,0,0,0-.57,6.71,8.76,8.76,0,0,0,1.7,3.12" style="fill: rgb(255, 255, 255);"></path><path class="watermark-path" d="M147,349c-.48.12-1.09.31-1.82.57a24.37,24.37,0,0,0-2.4,1A28.35,28.35,0,0,0,140,352a20.72,20.72,0,0,0-2.71,1.94c-.7.59-1.28,1.11-1.74,1.57a15.07,15.07,0,0,0-1.1,1.22,4.09,4.09,0,0,0-.59.92,2.32,2.32,0,0,0-.22.64,1.16,1.16,0,0,0,0,.47,1.83,1.83,0,0,0,.18.29,1.15,1.15,0,0,0,1,.37,5.54,5.54,0,0,0,1.51-.38q.87-.35,1.95-.9l2.26-1.18q1.2-.65,2.49-1.29c.87-.44,1.73-.83,2.59-1.17a18.94,18.94,0,0,1,2.6-.81,9.27,9.27,0,0,1,2.46-.29,6.25,6.25,0,0,1,2.24.49,5.12,5.12,0,0,1,1.89,1.47,6.35,6.35,0,0,1,1.41,2.61,6,6,0,0,1,.09,2.6,8.3,8.3,0,0,1-.9,2.52,17.79,17.79,0,0,1-1.62,2.37,23.92,23.92,0,0,1-2,2.15c-.72.67-1.41,1.29-2.09,1.87a33.79,33.79,0,0,1-5.33,3.7,32.29,32.29,0,0,1-4.91,2.28l-3.61-4.3a21.38,21.38,0,0,0,5.39-1.87,27.2,27.2,0,0,0,5.4-3.56,21.59,21.59,0,0,0,2.38-2.27,8.67,8.67,0,0,0,1.18-1.7,2.32,2.32,0,0,0,.27-1.19,1.34,1.34,0,0,0-.28-.74,1.21,1.21,0,0,0-1-.42,4.32,4.32,0,0,0-1.55.34,15.77,15.77,0,0,0-2,.88c-.72.37-1.48.77-2.27,1.21l-2.45,1.3c-.85.45-1.7.85-2.56,1.21a22.37,22.37,0,0,1-2.54.86,10,10,0,0,1-2.43.32,5.76,5.76,0,0,1-2.2-.45,5,5,0,0,1-1.89-1.45,6.12,6.12,0,0,1-1.31-2.41,6,6,0,0,1-.1-2.41,8.28,8.28,0,0,1,.81-2.38,14.06,14.06,0,0,1,1.49-2.24,22.37,22.37,0,0,1,1.85-2.05q1-1,2-1.77c.7-.59,1.44-1.15,2.23-1.7s1.62-1.06,2.44-1.53,1.63-.91,2.43-1.3,1.58-.75,2.3-1L147,349" style="fill: rgb(255, 255, 255);"></path><path class="watermark-path" d="M186.76,337.57l-10.6-12.63,3.92,18.24-4.66,3.91-17.27-7,10.6,12.63-4.86,4.07-15.09-18,6.59-5.54,18.69,7.52-4.15-19.71,6.57-5.52,15.09,18-4.83,4.05" style="fill: rgb(255, 255, 255);"></path><path class="watermark-path" d="M208.84,313.24l-10,8.42,1.16,4.82L194.56,331l-5.68-25.89,5.42-4.55,24.51,10.09-5.42,4.55-4.55-2m-11.23,3.45,6.57-5.52-8.83-3.87,2.26,9.39" style="fill: rgb(255, 255, 255);"></path><path class="watermark-path" d="M227.49,281.38c-.48.12-1.09.31-1.82.57a24.37,24.37,0,0,0-2.4,1,26.11,26.11,0,0,0-2.7,1.47,20.72,20.72,0,0,0-2.71,1.94c-.7.59-1.28,1.11-1.74,1.57a13.39,13.39,0,0,0-1.1,1.22,4.29,4.29,0,0,0-.59.91,2.48,2.48,0,0,0-.22.65,1.16,1.16,0,0,0,0,.47,1.83,1.83,0,0,0,.18.29,1.15,1.15,0,0,0,1,.37,5.54,5.54,0,0,0,1.51-.38q.87-.34,2-.9l2.26-1.18q1.2-.64,2.49-1.29c.87-.44,1.73-.83,2.59-1.17a18.94,18.94,0,0,1,2.6-.81,9.27,9.27,0,0,1,2.46-.29,6.08,6.08,0,0,1,2.24.49,5.09,5.09,0,0,1,1.89,1.46,6.47,6.47,0,0,1,1.41,2.61,6.07,6.07,0,0,1,.09,2.61,8.3,8.3,0,0,1-.9,2.52,16.32,16.32,0,0,1-1.63,2.36,21.41,21.41,0,0,1-2,2.16c-.72.67-1.41,1.29-2.1,1.86a33.36,33.36,0,0,1-5.32,3.71,31.92,31.92,0,0,1-4.92,2.28l-3.6-4.3a21.38,21.38,0,0,0,5.39-1.87,27.2,27.2,0,0,0,5.4-3.56,21.59,21.59,0,0,0,2.38-2.27,8.67,8.67,0,0,0,1.18-1.7A2.32,2.32,0,0,0,231,293a1.34,1.34,0,0,0-.28-.74,1.21,1.21,0,0,0-1-.42,4.32,4.32,0,0,0-1.55.34,16.54,16.54,0,0,0-2,.88c-.71.37-1.47.77-2.26,1.21l-2.46,1.3c-.84.44-1.7.85-2.55,1.21a24.53,24.53,0,0,1-2.54.86A10,10,0,0,1,214,298a5.76,5.76,0,0,1-2.2-.45,5,5,0,0,1-1.89-1.45,6.12,6.12,0,0,1-1.31-2.41,5.78,5.78,0,0,1-.1-2.41,8,8,0,0,1,.81-2.38,14.61,14.61,0,0,1,1.49-2.25,22.26,22.26,0,0,1,1.85-2q1-1,2-1.77c.7-.59,1.44-1.15,2.23-1.7s1.62-1.06,2.44-1.53,1.63-.91,2.43-1.31,1.58-.74,2.3-1l3.5,4.16" style="fill: rgb(255, 255, 255);"></path><path class="watermark-path" d="M261.64,274.74l-6.29-7.5L243,277.61l6.3,7.5-4.86,4.07-15.09-18,4.85-4.08,5.49,6.55L252,263.3l-5.49-6.55,4.86-4.07,15.09,18-4.86,4.08" style="fill: rgb(255, 255, 255);"></path><path class="watermark-path" d="M272.18,265.9l-15.09-18,4.86-4.08,15.09,18-4.86,4.08" style="fill: rgb(255, 255, 255);"></path><path class="watermark-path" d="M299.65,242.85l-22.51-2.18L287.51,253l-4.85,4.08-15.1-18,5.28-4.43,22.56,2.22L285,224.5l4.83-4.06,15.09,18-5.26,4.42" style="fill: rgb(255, 255, 255);"></path><path class="watermark-path" d="M306.68,205.52a31.88,31.88,0,0,1,5.29-3.66,34.48,34.48,0,0,1,5.14-2.35l3.69,4.39a20.77,20.77,0,0,0-2.37.61,20.47,20.47,0,0,0-2.61,1,25.12,25.12,0,0,0-2.76,1.49,23.9,23.9,0,0,0-2.8,2,20.42,20.42,0,0,0-2.8,2.77,12.77,12.77,0,0,0-1.64,2.52,7,7,0,0,0-.68,2.24,6,6,0,0,0,.66,3.64,8.16,8.16,0,0,0,.94,1.38,9.12,9.12,0,0,0,1.08,1.07,6.39,6.39,0,0,0,1.47.91,6.73,6.73,0,0,0,1.88.48,6.54,6.54,0,0,0,2.28-.18,11.67,11.67,0,0,0,2.74-1.07,19.38,19.38,0,0,0,3.18-2.22c.57-.48,1.06-.92,1.46-1.31a14.57,14.57,0,0,0,1-1.13,11.46,11.46,0,0,0,.81-1.05l.74-1.09-1.82-2.17-5.45,4.57-3.31-3.94,10.31-8.65,7.71,9.19a29,29,0,0,1-1.67,2.43q-1,1.26-2.1,2.52c-.74.84-1.5,1.65-2.3,2.44s-1.58,1.5-2.33,2.14a31,31,0,0,1-3.59,2.61,22.55,22.55,0,0,1-3.64,1.83,15.64,15.64,0,0,1-3.63.89,10.72,10.72,0,0,1-3.49-.15,10.45,10.45,0,0,1-3.28-1.33,12.54,12.54,0,0,1-3-2.67,12,12,0,0,1-2.08-3.44,10.45,10.45,0,0,1-.71-3.5,11.14,11.14,0,0,1,.51-3.51,15.72,15.72,0,0,1,1.56-3.43,21.62,21.62,0,0,1,2.42-3.28,30.3,30.3,0,0,1,3.15-3" style="fill: rgb(255, 255, 255);"></path><path class="watermark-path" d="M336.91,211.59l-15.1-18,4.86-4.08,11.79,14,13.13-11,3.31,3.94-18,15.1" style="fill: rgb(255, 255, 255);"></path><path class="watermark-path" d="M374.54,164.71a12.28,12.28,0,0,1,2.59,4.81,10.44,10.44,0,0,1,0,5,14.62,14.62,0,0,1-2.33,5,25.55,25.55,0,0,1-4.56,4.85,26.07,26.07,0,0,1-5.6,3.67,14.79,14.79,0,0,1-5.38,1.43,10.43,10.43,0,0,1-4.94-.89,13.24,13.24,0,0,1-6.87-8.18,10.48,10.48,0,0,1,0-5,14.51,14.51,0,0,1,2.36-5,25.23,25.23,0,0,1,4.57-4.89,25,25,0,0,1,5.59-3.64,14.45,14.45,0,0,1,5.35-1.43,10.31,10.31,0,0,1,4.93.92,12.22,12.22,0,0,1,4.28,3.38m-4.91,4.11a8.36,8.36,0,0,0-2-1.72,5.5,5.5,0,0,0-2.65-.85,7.72,7.72,0,0,0-3.32.57,14.49,14.49,0,0,0-4,2.52,16.72,16.72,0,0,0-2.38,2.4,10.15,10.15,0,0,0-1.39,2.24,6.71,6.71,0,0,0-.56,2.1,5.69,5.69,0,0,0,.1,1.9,6.21,6.21,0,0,0,.61,1.69,9.85,9.85,0,0,0,1,1.44,10.48,10.48,0,0,0,1.26,1.23,6.67,6.67,0,0,0,1.57.92,6.1,6.1,0,0,0,1.85.41,6.8,6.8,0,0,0,2.15-.2,11.06,11.06,0,0,0,2.45-1,17.67,17.67,0,0,0,2.77-1.94,14.39,14.39,0,0,0,3.18-3.52,7.74,7.74,0,0,0,1.14-3.17,5.54,5.54,0,0,0-.37-2.74,8.52,8.52,0,0,0-1.36-2.3" style="fill: rgb(255, 255, 255);"></path><path class="watermark-path" d="M382.66,141.76A32.3,32.3,0,0,1,388,138.1a34.12,34.12,0,0,1,5.15-2.35l3.69,4.4a19.62,19.62,0,0,0-2.37.6,22.08,22.08,0,0,0-2.61,1,26,26,0,0,0-2.77,1.49,23.9,23.9,0,0,0-2.8,2,21,21,0,0,0-2.8,2.78,13.19,13.19,0,0,0-1.64,2.51,7.29,7.29,0,0,0-.68,2.24,6.36,6.36,0,0,0,.06,2,5.8,5.8,0,0,0,.61,1.68,8.12,8.12,0,0,0,.93,1.38,9.16,9.16,0,0,0,1.08,1.08,6.56,6.56,0,0,0,1.48.9,6,6,0,0,0,1.87.48,6.76,6.76,0,0,0,2.28-.17,12,12,0,0,0,2.74-1.08,18.57,18.57,0,0,0,3.18-2.22c.58-.48,1.06-.92,1.46-1.31s.75-.77,1.05-1.12.57-.72.81-1.06l.73-1.09-1.82-2.17-5.45,4.57-3.3-3.94,10.3-8.65,7.71,9.19a29,29,0,0,1-1.67,2.43q-1,1.26-2.1,2.52c-.73.84-1.5,1.66-2.3,2.44s-1.57,1.5-2.33,2.14a31,31,0,0,1-3.59,2.61,22.15,22.15,0,0,1-3.64,1.83,15.56,15.56,0,0,1-3.62.89,11,11,0,0,1-3.49-.14,10.84,10.84,0,0,1-3.28-1.33,12.82,12.82,0,0,1-3-2.68,12.12,12.12,0,0,1-2.08-3.43A10.71,10.71,0,0,1,375,155a11.18,11.18,0,0,1,.51-3.51,15.51,15.51,0,0,1,1.57-3.43,21.44,21.44,0,0,1,2.42-3.28,30.19,30.19,0,0,1,3.14-3" style="fill: rgb(255, 255, 255);"></path><path class="watermark-path" d="M428.63,119.31a12.26,12.26,0,0,1,2.59,4.82,10.44,10.44,0,0,1,0,5,14.53,14.53,0,0,1-2.34,5,25.29,25.29,0,0,1-4.56,4.86,26,26,0,0,1-5.59,3.67,14.84,14.84,0,0,1-5.38,1.43,10.61,10.61,0,0,1-4.95-.89,12.15,12.15,0,0,1-4.3-3.37,12,12,0,0,1-2.56-4.81,10.48,10.48,0,0,1,0-5,14.39,14.39,0,0,1,2.35-5,27.89,27.89,0,0,1,10.16-8.53,14.49,14.49,0,0,1,5.36-1.43,10.27,10.27,0,0,1,4.92.92,12.21,12.21,0,0,1,4.28,3.37m-4.91,4.12a8.17,8.17,0,0,0-2-1.72,5.58,5.58,0,0,0-2.65-.86,7.86,7.86,0,0,0-3.31.58,14.49,14.49,0,0,0-4,2.52,16.21,16.21,0,0,0-2.38,2.4,9.85,9.85,0,0,0-1.4,2.24,7,7,0,0,0-.56,2.1,6,6,0,0,0,.1,1.9,6.23,6.23,0,0,0,.62,1.69,8.49,8.49,0,0,0,1,1.44,9.18,9.18,0,0,0,1.26,1.23,6.67,6.67,0,0,0,1.57.92,6,6,0,0,0,1.84.41,6.86,6.86,0,0,0,2.16-.2,11.26,11.26,0,0,0,2.45-1,17.62,17.62,0,0,0,2.76-1.94,14.67,14.67,0,0,0,3.19-3.52,7.71,7.71,0,0,0,1.13-3.17,5.53,5.53,0,0,0-.36-2.74,8.55,8.55,0,0,0-1.37-2.3" style="fill: rgb(255, 255, 255);"></path></g></svg>